<?xml version="1.0" standalone="no"?>
<!DOCTYPE svg PUBLIC "-//W3C//DTD SVG 20010904//EN"
 "http://www.w3.org/TR/2001/REC-SVG-20010904/DTD/svg10.dtd">
<svg version="1.0" xmlns="http://www.w3.org/2000/svg"
 width="273.000000pt" height="290.000000pt" viewBox="0 0 273.000000 290.000000"
 preserveAspectRatio="xMidYMid meet">

<g transform="translate(0.000000,290.000000) scale(0.100000,-0.100000)"
fill="white" stroke="none">
<path d="M2465 2795 c-335 -113 -656 -291 -960 -529 -409 -322 -616 -589 -656
-848 -11 -68 -5 -199 9 -197 4 1 38 35 76 78 403 443 914 920 1205 1124 114
80 290 179 274 155 -4 -7 -146 -148 -316 -313 -169 -165 -530 -524 -803 -799
l-496 -498 41 -18 c22 -10 45 -27 52 -38 11 -18 36 4 296 268 l284 287 137 6
c164 7 307 40 390 89 31 18 87 62 124 97 96 89 118 134 46 91 -49 -28 -197
-77 -288 -94 -76 -15 -226 -23 -235 -14 -3 3 32 40 79 82 78 71 87 76 129 76
70 0 228 45 322 91 221 110 375 337 471 694 25 94 48 194 51 223 6 50 5 52
-18 52 -13 -1 -109 -30 -214 -65z"/>
<path d="M1225 2614 c-136 -19 -194 -30 -285 -56 -304 -87 -558 -294 -715
-583 -60 -110 -88 -189 -116 -325 -55 -273 -10 -606 108 -802 l34 -58 50 43
c27 23 49 45 49 48 0 4 -11 31 -24 62 -72 162 -99 285 -99 452 0 286 100 544
289 745 128 135 251 213 434 274 136 45 257 66 387 66 l104 0 53 58 54 57 -31
7 c-40 9 -251 18 -292 12z"/>
<path d="M2392 1683 c-47 -34 -51 -41 -47 -68 3 -16 8 -87 11 -156 16 -330
-101 -620 -345 -851 -280 -266 -679 -352 -1043 -227 l-91 31 -48 -48 c-27 -27
-49 -51 -49 -55 0 -20 235 -91 360 -110 125 -18 332 -7 451 25 140 37 176 50
272 103 144 79 282 193 369 305 95 121 155 232 199 365 51 153 69 268 68 428
-1 131 -24 285 -44 292 -6 2 -34 -14 -63 -34z"/>
<path d="M701 1369 c-46 -63 -65 -131 -64 -234 0 -49 4 -100 9 -113 9 -21 12
-20 68 37 l58 58 -16 30 c-25 49 -39 153 -28 211 5 29 8 52 6 52 -2 0 -17 -18
-33 -41z"/>
<path d="M1940 1390 c-77 -40 -211 -71 -330 -77 l-115 -5 -143 -147 -144 -146
49 -12 c70 -16 229 -16 298 2 81 21 199 79 248 124 53 47 142 169 167 227 28
64 27 65 -30 34z"/>
<path d="M1013 815 c-41 -41 -72 -78 -69 -83 10 -17 93 -32 168 -32 116 0 237
42 317 109 l34 28 -99 0 c-79 1 -115 6 -179 27 -44 14 -84 26 -89 26 -4 0 -42
-34 -83 -75z"/>
<path d="M677 846 c-9 -7 -45 -47 -80 -88 -34 -41 -104 -122 -156 -181 l-93
-107 -67 0 c-39 0 -74 -5 -83 -12 -9 -7 -28 -60 -42 -118 -16 -63 -45 -142
-73 -198 -64 -126 -46 -143 62 -57 53 43 149 90 225 112 71 19 80 32 80 121
l0 56 176 176 c96 97 180 183 185 191 29 45 -22 119 -83 119 -18 0 -41 -7 -51
-14z"/>
</g>
</svg>
